<svg xmlns="http://www.w3.org/2000/svg" xmlns:xlink="http://www.w3.org/1999/xlink" viewBox="0 0 456.53 436.84"><defs><style>.cls-1,.cls-17{fill:#ef7d00;}.cls-1,.cls-14,.cls-2,.cls-3{fill-rule:evenodd;}.cls-1{opacity:0.5;}.cls-2{fill:#ddd;}.cls-16,.cls-3{fill:#e6007e;}.cls-3{opacity:0.45;}.cls-13,.cls-14,.cls-15,.cls-21,.cls-22,.cls-25,.cls-26,.cls-27,.cls-4,.cls-7,.cls-9{fill:none;}.cls-4,.cls-5,.cls-7{stroke:#1d1d1b;}.cls-13,.cls-14,.cls-15,.cls-26,.cls-27,.cls-4,.cls-5,.cls-7,.cls-9{stroke-miterlimit:22.93;}.cls-4,.cls-5{stroke-width:0.57px;}.cls-10,.cls-12,.cls-18,.cls-19,.cls-24,.cls-28,.cls-5,.cls-6,.cls-8{fill:#1d1d1b;}.cls-6{font-size:12px;}.cls-10,.cls-12,.cls-18,.cls-19,.cls-24,.cls-6,.cls-8{font-family:ArialMT, Arial;}.cls-8{font-size:14px;}.cls-9{stroke:#636363;}.cls-10{font-size:11px;}.cls-11{letter-spacing:-0.02em;}.cls-12{font-size:9px;}.cls-13{stroke:#e6007e;}.cls-13,.cls-15{stroke-width:1.42px;stroke-dasharray:3 2;}.cls-14,.cls-15{stroke:#ef7d00;}.cls-14{stroke-width:2.83px;}.cls-16,.cls-17,.cls-28{font-size:12px;font-family:Arial-BoldMT, Arial;font-weight:700;}.cls-18,.cls-19{font-size:14px;}.cls-18{letter-spacing:-0.06em;}.cls-20,.cls-23{opacity:0.8;}.cls-20{fill:url(#linear-gradient);}.cls-21,.cls-22{stroke:#000;}.cls-21,.cls-22,.cls-25{stroke-miterlimit:10;}.cls-21{stroke-width:0.5px;}.cls-23{fill:url(#linear-gradient-2);}.cls-24{font-size:7px;}.cls-25,.cls-26,.cls-27{stroke:#19191b;}.cls-27{stroke-linecap:square;}</style><linearGradient id="linear-gradient" x1="785.85" y1="-348.37" x2="785.85" y2="-439.72" gradientTransform="translate(451.1 865.92) rotate(-90)" gradientUnits="userSpaceOnUse"><stop offset="0.04"/><stop offset="0.09" stop-color="#39030f"/><stop offset="0.13" stop-color="#6a061c"/><stop offset="0.17" stop-color="#8d0825"/><stop offset="0.2" stop-color="#a20a2b"/><stop offset="0.22" stop-color="#aa0a2d"/><stop offset="0.26" stop-color="#be2433"/><stop offset="0.32" stop-color="#cf3a39"/><stop offset="0.39" stop-color="#dc4b3d"/><stop offset="0.47" stop-color="#e55640"/><stop offset="0.59" stop-color="#eb5d42"/><stop offset="0.92" stop-color="#ec5f42"/></linearGradient><linearGradient id="linear-gradient-2" x1="784.85" y1="-80.87" x2="784.85" y2="-172.22" xlink:href="#linear-gradient"/></defs><title>Asset 2</title><g id="Layer_2" data-name="Layer 2"><g id="Orange_shade" data-name="Orange shade"><polygon class="cls-1" points="173.11 345.52 363.13 345.26 363.13 222.94 348.25 225.07 333.36 226.67 319.01 228.8 307.58 232 292.44 237.6 278.88 244.53 264.27 252.79 252.31 261.85 239.02 273.57 228.12 285.56 215.9 298.89 205.53 310.61 194.64 322.61 183.21 334.86 173.11 345.52"/></g><g id="Grey_Shade" data-name="Grey Shade"><path class="cls-2" d="M83.28,394.3H362.86l-.27-49.17H173.28s-9.86,9.94-11.45,11.29-13.32,11.82-14.91,12.89-9.06,6.18-9.06,6.18l-8.78,5.37-10.92,4.84-8.52,3-8.52,2.68-9.05,1.08L87,393Z"/></g><g id="Pink_shade" data-name="Pink shade"><polygon class="cls-3" points="76.49 394.42 80.78 394.3 96.11 390.96 105.8 388.35 113.49 385.96 121.72 382.51 130.47 377.74 138.43 373.23 149.04 365 156.2 358.9 163.63 352.27 170.53 345.11 76.09 345.11 76.49 394.42"/></g><g id="Layer_1-2" data-name="Layer 1"><rect class="cls-4" x="158.2" y="58.3" width="45" height="45"/><rect class="cls-5" x="151.9" y="45.17" width="3.75" height="26.25"/><rect class="cls-5" x="152" y="44.8" width="17.46" height="3.75"/><line class="cls-4" x1="11.31" y1="57.18" x2="11.31" y2="101.18"/><line class="cls-4" x1="11.31" y1="57.18" x2="0.14" y2="63.63"/><line class="cls-4" x1="11.31" y1="67.23" x2="0.14" y2="73.68"/><line class="cls-4" x1="11.31" y1="77.48" x2="0.14" y2="83.93"/><line class="cls-4" x1="11.31" y1="87.73" x2="0.14" y2="94.18"/><line class="cls-4" x1="11.31" y1="97.92" x2="0.14" y2="104.37"/><text class="cls-6" transform="translate(33.66 130.78)">Muscle</text><text class="cls-6" transform="translate(106.49 130.8)">Spring</text><text class="cls-6" transform="translate(168.1 131.24)">Mass</text><text class="cls-6" transform="translate(145.76 40.16) scale(0.99 1)">Latch</text><rect class="cls-4" x="411.24" y="58.3" width="45" height="45"/><line class="cls-4" x1="278.24" y1="57.18" x2="278.24" y2="101.18"/><line class="cls-4" x1="278.24" y1="57.18" x2="267.07" y2="63.63"/><line class="cls-4" x1="278.24" y1="67.23" x2="267.07" y2="73.68"/><line class="cls-4" x1="278.24" y1="77.48" x2="267.07" y2="83.93"/><line class="cls-4" x1="278.24" y1="87.73" x2="267.07" y2="94.18"/><line class="cls-4" x1="278.24" y1="97.92" x2="267.07" y2="104.37"/><text class="cls-6" transform="translate(300.59 130.78)">Muscle</text><text class="cls-6" transform="translate(421.14 131.24)">Mass</text><line class="cls-7" x1="411.24" y1="80.8" x2="357.4" y2="80.8"/><text class="cls-8" transform="translate(50.17 12.01)">Spring-actuated<tspan x="30.35" y="14">Model</tspan></text><text class="cls-8" transform="translate(326.13 12.01)">Muscle-actuated<tspan x="32.29" y="14">Model</tspan></text><line class="cls-9" x1="88.04" y1="391.74" x2="88.04" y2="390.15"/><line class="cls-9" x1="76.25" y1="391.74" x2="76.25" y2="388.57"/><line class="cls-9" x1="76.25" y1="391.74" x2="79.42" y2="391.74"/><line class="cls-9" x1="76.25" y1="383.02" x2="78.62" y2="383.02"/><line class="cls-9" x1="76.25" y1="374.3" x2="78.62" y2="374.3"/><line class="cls-9" x1="76.25" y1="366.37" x2="78.62" y2="366.37"/><line class="cls-9" x1="76.25" y1="357.65" x2="79.42" y2="357.65"/><line class="cls-9" x1="76.25" y1="348.93" x2="78.62" y2="348.93"/><line class="cls-9" x1="76.25" y1="340.21" x2="78.62" y2="340.21"/><line class="cls-9" x1="76.25" y1="331.49" x2="78.62" y2="331.49"/><line class="cls-9" x1="76.25" y1="322.77" x2="79.42" y2="322.77"/><line class="cls-9" x1="76.25" y1="314.05" x2="78.62" y2="314.05"/><line class="cls-9" x1="76.25" y1="306.13" x2="78.62" y2="306.13"/><line class="cls-9" x1="76.25" y1="297.41" x2="78.62" y2="297.41"/><line class="cls-9" x1="76.25" y1="288.69" x2="79.42" y2="288.69"/><line class="cls-9" x1="76.25" y1="279.97" x2="78.62" y2="279.97"/><line class="cls-9" x1="76.25" y1="271.25" x2="78.62" y2="271.25"/><line class="cls-9" x1="76.25" y1="262.53" x2="78.62" y2="262.53"/><line class="cls-9" x1="76.25" y1="253.81" x2="79.42" y2="253.81"/><line class="cls-9" x1="76.25" y1="245.09" x2="78.62" y2="245.09"/><line class="cls-9" x1="76.25" y1="237.16" x2="78.62" y2="237.16"/><line class="cls-9" x1="76.25" y1="228.44" x2="78.62" y2="228.44"/><line class="cls-9" x1="76.25" y1="219.72" x2="79.42" y2="219.72"/><line class="cls-9" x1="76.25" y1="395.7" x2="76.25" y2="218.14"/><text class="cls-10" transform="translate(42.77 370.9) rotate(-90)">E<tspan class="cls-11" x="7.34" y="0">f</tspan><tspan x="10.19" y="0">fective Jump Height (m)</tspan></text><text class="cls-12" transform="translate(53.64 259.43)">1.2</text><text class="cls-12" transform="translate(54.92 292.96)">0.9</text><text class="cls-12" transform="translate(54.32 328.36)">0.6</text><text class="cls-12" transform="translate(54.92 362.56)">0.3</text><text class="cls-12" transform="translate(59.48 397.36)">0</text><line class="cls-13" x1="79.63" y1="345.25" x2="363.43" y2="345.25"/><polyline class="cls-14" points="82.21 392.75 83.84 392.75 85.48 392.75 87.11 392.75 88.75 392.75 90.39 391.92 92.02 391.92 93.65 391.92 95.29 391.92 96.92 391.09 98.56 391.09 100.19 391.09 101.83 390.26 103.46 390.26 105.1 389.43 106.73 389.43 108.37 388.6 110 387.77 111.64 387.77 113.27 386.94 114.91 386.11 116.54 385.28 118.18 385.28 119.81 384.45 121.45 383.62 123.08 382.79 124.72 381.96 126.35 381.13 127.99 380.3 129.62 379.47 131.26 378.64 132.89 376.98 135.34 376.15 136.98 375.32 138.62 374.49 140.25 372.82 141.88 371.99 143.52 370.33 145.16 369.5 146.79 367.84 148.42 367.01 150.06 365.35 151.69 364.52 153.33 362.86 154.96 361.2 156.6 360.37 158.24 358.71 159.87 357.05 161.5 355.38 163.14 354.56 164.77 352.89 166.41 351.23 168.04 349.57 169.68 347.91 171.31 346.25 172.95 344.59 174.58 342.93 176.22 341.27 177.85 339.61 179.49 337.95 181.12 336.29 182.76 333.79 184.39 332.13 186.03 330.47 187.66 328.81 189.3 327.15 190.93 325.49 192.57 323 194.2 321.34 195.84 319.68 197.47 318.02 199.11 315.53 200.74 313.87 203.19 312.2 204.83 309.71 206.47 308.05 208.1 306.39 209.74 304.73 211.37 302.24 213 300.58 214.64 298.92 216.28 297.26 217.91 294.76 219.54 293.11 221.18 291.44 222.81 289.78 224.45 288.12 226.08 286.46 227.72 283.97 229.35 282.31 230.99 280.65 232.62 278.99 234.26 277.33 235.89 275.67 237.53 274 239.16 272.34 240.8 270.68 242.43 269.85 244.07 268.19 245.7 266.53 247.34 264.87 248.97 264.04 250.61 262.38 252.24 260.72 253.88 259.89 255.51 258.23 257.15 256.57 258.78 255.74 260.42 254.07 262.05 253.25 263.69 252.41 265.32 250.75 266.96 249.92 268.59 249.09 271.04 247.43 272.68 246.6 274.31 245.77 275.95 244.94 277.58 244.11 279.22 243.28 280.85 242.45 282.49 241.62 284.12 240.79 285.76 239.96 287.39 239.13 289.03 238.3 290.66 237.47 292.3 236.64 293.93 236.64 295.57 235.81 297.2 234.97 298.84 234.15 300.47 234.15 302.11 233.31 303.74 232.48 305.38 232.48 307.01 231.65 308.65 231.65 310.28 230.82 311.92 230.82 313.55 229.99 315.19 229.99 316.82 229.16 318.46 229.16 320.09 228.33 321.73 228.33 323.36 227.5 325 227.5 326.63 227.5 328.27 226.67 329.9 226.67 331.54 226.67 333.17 225.84 334.81 225.84 336.44 225.84 338.89 225.84 340.53 225.01 342.16 225.01 343.8 225.01 345.43 225.01 347.07 224.18 348.7 224.18 350.34 224.18 351.97 224.18 353.61 224.18 355.24 223.35 356.88 223.35 358.51 223.35 360.15 223.35 361.78 223.35 363.42 223.35"/><line class="cls-9" x1="82.21" y1="394.42" x2="82.21" y2="391.09"/><line class="cls-9" x1="96.11" y1="394.42" x2="96.11" y2="392.75"/><line class="cls-9" x1="109.19" y1="394.42" x2="109.19" y2="392.75"/><line class="cls-9" x1="123.08" y1="394.42" x2="123.08" y2="392.75"/><line class="cls-9" x1="136.98" y1="394.42" x2="136.98" y2="391.09"/><line class="cls-9" x1="150.88" y1="394.42" x2="150.88" y2="392.75"/><line class="cls-9" x1="164.77" y1="394.42" x2="164.77" y2="392.75"/><line class="cls-9" x1="178.67" y1="394.42" x2="178.67" y2="392.75"/><line class="cls-9" x1="192.57" y1="394.42" x2="192.57" y2="391.09"/><line class="cls-9" x1="206.46" y1="394.42" x2="206.46" y2="392.75"/><line class="cls-9" x1="219.54" y1="394.42" x2="219.54" y2="392.75"/><line class="cls-9" x1="233.44" y1="394.42" x2="233.44" y2="392.75"/><line class="cls-9" x1="247.34" y1="394.42" x2="247.34" y2="391.09"/><line class="cls-9" x1="261.23" y1="394.42" x2="261.23" y2="392.75"/><line class="cls-9" x1="275.13" y1="394.42" x2="275.13" y2="392.75"/><line class="cls-9" x1="289.03" y1="394.42" x2="289.03" y2="392.75"/><line class="cls-9" x1="302.92" y1="394.42" x2="302.92" y2="391.09"/><line class="cls-9" x1="316.82" y1="394.42" x2="316.82" y2="392.75"/><line class="cls-9" x1="329.9" y1="394.42" x2="329.9" y2="392.75"/><line class="cls-9" x1="343.8" y1="394.42" x2="343.8" y2="392.75"/><line class="cls-9" x1="357.7" y1="394.42" x2="357.7" y2="391.09"/><line class="cls-9" x1="76.49" y1="394.42" x2="363.28" y2="394.46"/><text class="cls-12" transform="translate(112.66 429.95) rotate(-90)">10 mg</text><text class="cls-12" transform="translate(140.79 432.77) rotate(-90)">100 mg</text><text class="cls-12" transform="translate(168.66 422.76) rotate(-90)">1<tspan x="5.01" y="0" xml:space="preserve"> g</tspan></text><text class="cls-12" transform="translate(196.16 425.42) rotate(-90)">1<tspan x="5.01" y="0">0 g</tspan></text><text class="cls-12" transform="translate(223.45 428.64) rotate(-90)">1<tspan x="5.01" y="0">00 g</tspan></text><text class="cls-12" transform="translate(251.45 425.5) rotate(-90)">1 kg</text><text class="cls-12" transform="translate(278.86 428.34) rotate(-90)">10 kg</text><text class="cls-12" transform="translate(306.64 431.17) rotate(-90)">100 kg</text><text class="cls-12" transform="translate(84.76 427.5) rotate(-90)">1 mg</text><text class="cls-12" transform="translate(333.48 432.31) rotate(-90)">1000 kg</text><text class="cls-12" transform="translate(361.06 436.84) rotate(-90)">10,000 kg</text><line class="cls-15" x1="79.63" y1="221.58" x2="363.43" y2="221.58"/><text class="cls-16" transform="translate(81.39 339.69)">1</text><text class="cls-17" transform="translate(82.69 235.22)">2</text><line class="cls-9" x1="360.57" y1="383.02" x2="362.95" y2="383.02"/><line class="cls-9" x1="360.57" y1="374.3" x2="362.95" y2="374.3"/><line class="cls-9" x1="360.57" y1="366.37" x2="362.95" y2="366.37"/><line class="cls-9" x1="360.57" y1="357.65" x2="363.74" y2="357.65"/><line class="cls-9" x1="360.57" y1="348.93" x2="362.95" y2="348.93"/><line class="cls-9" x1="360.57" y1="340.21" x2="362.95" y2="340.21"/><line class="cls-9" x1="360.57" y1="331.49" x2="362.95" y2="331.49"/><line class="cls-9" x1="360.57" y1="322.77" x2="363.74" y2="322.77"/><line class="cls-9" x1="360.57" y1="314.05" x2="362.95" y2="314.05"/><line class="cls-9" x1="360.57" y1="306.13" x2="362.95" y2="306.13"/><line class="cls-9" x1="360.57" y1="297.41" x2="362.95" y2="297.41"/><line class="cls-9" x1="360.57" y1="288.69" x2="363.74" y2="288.69"/><line class="cls-9" x1="360.57" y1="279.97" x2="362.95" y2="279.97"/><line class="cls-9" x1="360.57" y1="271.25" x2="362.95" y2="271.25"/><line class="cls-9" x1="360.57" y1="262.53" x2="362.95" y2="262.53"/><line class="cls-9" x1="360.57" y1="253.81" x2="363.74" y2="253.81"/><line class="cls-9" x1="360.57" y1="245.09" x2="362.95" y2="245.09"/><line class="cls-9" x1="360.57" y1="237.16" x2="362.95" y2="237.16"/><line class="cls-9" x1="360.57" y1="228.44" x2="362.95" y2="228.44"/><line class="cls-9" x1="360.57" y1="219.72" x2="363.74" y2="219.72"/><line class="cls-9" x1="362.95" y1="395.7" x2="362.95" y2="218.14"/><text class="cls-10" transform="translate(389.57 382.83) rotate(-90)">Kinetic Energy Density (J/kg)</text><text class="cls-12" transform="translate(366.09 224.86)">15</text><text class="cls-12" transform="translate(366.16 259.43)">12</text><text class="cls-12" transform="translate(368.84 292.46)">9</text><text class="cls-12" transform="translate(368.07 328.36)">6</text><text class="cls-12" transform="translate(368.15 362.56)">3</text><text class="cls-12" transform="translate(367.57 397.36)">0</text><text class="cls-12" transform="translate(53.64 225.24)">1.5</text><text class="cls-18" transform="translate(0.33 18.81)">A</text><text class="cls-19" transform="translate(249.15 18.81)">D</text><path class="cls-20" d="M102.72,80.08c-51.39-32.95-91.34-.37-91.34-.37v.74s39.95,32.57,91.34-.37"/><path class="cls-21" d="M102.72,80c-51.39-24.62-91.34-.28-91.34-.28v.56s39.95,24.34,91.34-.28"/><path class="cls-21" d="M102.72,79.87c-51.39-13.58-91.34-.16-91.34-.16V80s39.95,13.42,91.34-.15"/><line class="cls-21" x1="11.38" y1="79.71" x2="102.72" y2="79.71"/><path class="cls-22" d="M158.28,79.43l-18.54.18A3.59,3.59,0,0,1,137,78.1l-1.43-2.29c-.52-.84-1.17-.75-1.43.21l-2,7.22c-.26,1-.75,1-1.1.05l-2.93-7.91c-.34-.93-.85-.92-1.13,0l-2.32,7.84c-.28,1-.81,1-1.17,0L120.62,76c-.36-.92-.88-.9-1.16.05l-2.32,7.84c-.29,1-.8,1-1.14,0L113.07,76c-.34-.93-.87-.92-1.16,0l-2.27,7.26c-.3.95-.77.94-1,0l-2.32-7.84c-.28-1-.84-1-1.25-.08l-1.45,3.25a2.88,2.88,0,0,1-2.35,1.65H99.61"/><path class="cls-23" d="M370.22,81.08c-51.4-32.95-91.34-.37-91.34-.37v.74s39.94,32.57,91.34-.37"/><path class="cls-21" d="M370.22,81c-51.4-24.62-91.34-.28-91.34-.28v.56s39.95,24.34,91.34-.28"/><path class="cls-21" d="M370.22,80.87c-51.39-13.58-91.34-.16-91.34-.16V81s39.95,13.42,91.34-.15"/><line class="cls-21" x1="278.88" y1="80.71" x2="370.22" y2="80.71"/></g><g id="G_text" data-name="G text"><text class="cls-12" transform="translate(246.26 297.3)">Muscle-actuated<tspan x="17.01" y="14.93">jumpers</tspan></text><text class="cls-12" transform="translate(239.76 357.63)">Muscle-actuated or <tspan x="7.25" y="14.93">spring-actuated </tspan><tspan x="23.51" y="29.87">jumpers</tspan></text><text class="cls-12" transform="translate(89.01 356.96)">Spring-actuated<tspan x="15.77" y="14.93">jumpers</tspan></text><text class="cls-12" transform="translate(93.01 297.3)">Not achievable</text><text class="cls-24" transform="translate(81.92 203.87)">Spring improves jump height</text><text class="cls-24" transform="translate(218.95 203.87)">Muscle improves jump height</text><line class="cls-25" x1="98.66" y1="194.63" x2="342.03" y2="194.63"/><line class="cls-26" x1="76.78" y1="201.98" x2="98.91" y2="187.61"/><line class="cls-26" x1="98.91" y1="216.41" x2="76.78" y2="202.03"/><line class="cls-27" x1="98.66" y1="194.63" x2="98.66" y2="188.25"/><line class="cls-27" x1="98.66" y1="215.77" x2="98.66" y2="209.39"/><line class="cls-26" x1="363.91" y1="201.98" x2="341.78" y2="187.61"/><line class="cls-26" x1="341.78" y1="216.41" x2="363.91" y2="202.03"/><line class="cls-27" x1="342.03" y1="194.63" x2="342.03" y2="188.25"/><line class="cls-27" x1="342.03" y1="215.77" x2="342.03" y2="209.39"/><line class="cls-25" x1="98.66" y1="209.36" x2="342.03" y2="209.36"/><text class="cls-28" transform="translate(174.69 235.22)">3</text><line class="cls-26" x1="172" y1="393.68" x2="172" y2="194.96"/></g></g></svg>