<?xml version="1.0" encoding="utf-8"?>
<!-- Generator: Adobe Illustrator 24.2.3, SVG Export Plug-In . SVG Version: 6.00 Build 0)  -->
<svg version="1.1" id="Layer_1" xmlns="http://www.w3.org/2000/svg" xmlns:xlink="http://www.w3.org/1999/xlink" x="0px" y="0px"
	 viewBox="0 0 549.29 165.62" style="enable-background:new 0 0 549.29 165.62;" xml:space="preserve">
<style type="text/css">
	.st0{fill:none;stroke:#CCA279;stroke-miterlimit:10;}
	.st1{fill:#CCA279;}
</style>
<g>
	<polyline class="st0" points="7.47,36.6 283.15,36.6 296.18,23.43 296.76,23.43 375.17,23.43 388.34,10.26 469.87,10.26 
		498.71,39.1 542.39,39.1 	"/>
	<path class="st0" d="M542.39,45.88H495.9l-28.84-28.84h-75.9l-13.17,13.17h-78.97l-13.04,13.17H7.47"/>
	<path class="st0" d="M7.47,29.82h272.85l13.02-13.15l3.38-0.02h75.64l13.17-13.17h87.15l28.84,28.84h40.87"/>
</g>
<circle class="st1" cx="542.88" cy="32.32" r="2.44"/>
<circle class="st1" cx="542.88" cy="39.15" r="2.44"/>
<circle class="st1" cx="542.88" cy="45.88" r="2.44"/>
<path class="st0" d="M455.99,45.25h-56.23l-20.99,21.13H7.47"/>
<path class="st0" d="M495.9,53.56"/>
<circle class="st1" cx="456.29" cy="45.25" r="2.44"/>
<path class="st0" d="M455.99,52.83h-52.23l-20.99,21.13H7.47"/>
<path class="st0" d="M508.95,82.88H7.47"/>
<circle class="st1" cx="456.29" cy="52.83" r="2.44"/>
<g>
	<path class="st0" d="M455.99,126.62h-56.23l-20.99-21.13H7.47"/>
	<circle class="st1" cx="456.29" cy="126.62" r="2.44"/>
	<path class="st0" d="M455.99,119.04h-52.23l-20.99-21.13H7.47"/>
	<circle class="st1" cx="456.29" cy="119.04" r="2.44"/>
</g>
<circle class="st1" cx="508.95" cy="82.88" r="2.44"/>
<path class="st0" d="M427.95,90.08H7.47"/>
<circle class="st1" cx="427.99" cy="90.08" r="2.44"/>
<g>
	<polyline class="st0" points="438.02,90.08 455.67,107.74 522.36,107.74 	"/>
	<circle class="st1" cx="438.02" cy="90.08" r="2.44"/>
	<circle class="st1" cx="522.36" cy="107.74" r="2.44"/>
</g>
<circle class="st1" cx="6.07" cy="29.55" r="2.44"/>
<circle class="st1" cx="6.07" cy="36.37" r="2.44"/>
<circle class="st1" cx="6.07" cy="43.11" r="2.44"/>
<circle class="st1" cx="6.07" cy="66.15" r="2.44"/>
<circle class="st1" cx="6.07" cy="73.65" r="2.44"/>
<circle class="st1" cx="6.07" cy="82.88" r="2.44"/>
<circle class="st1" cx="6.07" cy="90.08" r="2.44"/>
<circle class="st1" cx="6.07" cy="97.91" r="2.44"/>
<circle class="st1" cx="6.07" cy="105.5" r="2.44"/>
<g>
	<path class="st1" d="M302.22,34.13c1.03,0,1.86,0.84,1.86,1.86s-0.84,1.86-1.86,1.86s-1.86-0.84-1.86-1.86
		S301.19,34.13,302.22,34.13 M302.22,33.13c-1.58,0-2.86,1.28-2.86,2.86s1.28,2.86,2.86,2.86s2.86-1.28,2.86-2.86
		S303.8,33.13,302.22,33.13L302.22,33.13z"/>
</g>
<g>
	<path class="st1" d="M393.68,21.09c1.03,0,1.86,0.84,1.86,1.86s-0.84,1.86-1.86,1.86s-1.86-0.84-1.86-1.86
		S392.65,21.09,393.68,21.09 M393.68,20.09c-1.58,0-2.86,1.28-2.86,2.86s1.28,2.86,2.86,2.86s2.86-1.28,2.86-2.86
		S395.26,20.09,393.68,20.09L393.68,20.09z"/>
</g>
<g>
	<path class="st1" d="M407.14,56.45c1.03,0,1.86,0.84,1.86,1.86c0,1.03-0.84,1.86-1.86,1.86s-1.86-0.84-1.86-1.86
		C405.28,57.29,406.11,56.45,407.14,56.45 M407.14,55.45c-1.58,0-2.86,1.28-2.86,2.86c0,1.58,1.28,2.86,2.86,2.86
		s2.86-1.28,2.86-2.86C410.01,56.73,408.72,55.45,407.14,55.45L407.14,55.45z"/>
</g>
<g>
	<path class="st1" d="M448.54,88.25c1.03,0,1.86,0.84,1.86,1.86c0,1.03-0.84,1.86-1.86,1.86s-1.86-0.84-1.86-1.86
		C446.68,89.09,447.51,88.25,448.54,88.25 M448.54,87.25c-1.58,0-2.86,1.28-2.86,2.86c0,1.58,1.28,2.86,2.86,2.86
		c1.58,0,2.86-1.28,2.86-2.86C451.41,88.53,450.12,87.25,448.54,87.25L448.54,87.25z"/>
</g>
<g>
	<path class="st1" d="M407.14,111.18c1.03,0,1.86,0.84,1.86,1.86c0,1.03-0.84,1.86-1.86,1.86s-1.86-0.84-1.86-1.86
		C405.28,112.02,406.11,111.18,407.14,111.18 M407.14,110.18c-1.58,0-2.86,1.28-2.86,2.86c0,1.58,1.28,2.86,2.86,2.86
		s2.86-1.28,2.86-2.86C410.01,111.46,408.72,110.18,407.14,110.18L407.14,110.18z"/>
</g>
</svg>
